<svg xmlns="http://www.w3.org/2000/svg" viewBox="0 0 237.00 54.00" style="height:100%;width:auto;display:block;filter:drop-shadow(0 0 3px rgba(248,168,168,0.6)) drop-shadow(0 0 8px rgba(248,168,168,0.3));"><rect x="6.50" y="6.50" width="5.00" height="5.00" fill="#f8a8a8" stroke="#c87878" stroke-width="0.5"/><rect x="7.00" y="7.00" width="4.00" height="1.00" fill="#ff9a9a" opacity="0.5"/><rect x="30.50" y="6.50" width="5.00" height="5.00" fill="#f8a8a8" stroke="#c87878" stroke-width="0.5"/><rect x="31.00" y="7.00" width="4.00" height="1.00" fill="#ff9a9a" opacity="0.5"/><rect x="6.50" y="12.50" width="5.00" height="5.00" fill="#f8a8a8" stroke="#c87878" stroke-width="0.5"/><rect x="7.00" y="13.00" width="4.00" height="1.00" fill="#ff9a9a" opacity="0.5"/><rect x="30.50" y="12.50" width="5.00" height="5.00" fill="#f8a8a8" stroke="#c87878" stroke-width="0.5"/><rect x="31.00" y="13.00" width="4.00" height="1.00" fill="#ff9a9a" opacity="0.5"/><rect x="6.50" y="18.50" width="5.00" height="5.00" fill="#f8a8a8" stroke="#c87878" stroke-width="0.5"/><rect x="7.00" y="19.00" width="4.00" height="1.00" fill="#ff9a9a" opacity="0.5"/><rect x="12.50" y="18.50" width="5.00" height="5.00" fill="#f8a8a8" stroke="#c87878" stroke-width="0.5"/><rect x="13.00" y="19.00" width="4.00" height="1.00" fill="#ff9a9a" opacity="0.5"/><rect x="30.50" y="18.50" width="5.00" height="5.00" fill="#f8a8a8" stroke="#c87878" stroke-width="0.5"/><rect x="31.00" y="19.00" width="4.00" height="1.00" fill="#ff9a9a" opacity="0.5"/><rect x="6.50" y="24.50" width="5.00" height="5.00" fill="#f8a8a8" stroke="#c87878" stroke-width="0.5"/><rect x="7.00" y="25.00" width="4.00" height="1.00" fill="#ff9a9a" opacity="0.5"/><rect x="18.50" y="24.50" width="5.00" height="5.00" fill="#f8a8a8" stroke="#c87878" stroke-width="0.5"/><rect x="19.00" y="25.00" width="4.00" height="1.00" fill="#ff9a9a" opacity="0.5"/><rect x="30.50" y="24.50" width="5.00" height="5.00" fill="#f8a8a8" stroke="#c87878" stroke-width="0.5"/><rect x="31.00" y="25.00" width="4.00" height="1.00" fill="#ff9a9a" opacity="0.5"/><rect x="6.50" y="30.50" width="5.00" height="5.00" fill="#f8a8a8" stroke="#c87878" stroke-width="0.5"/><rect x="7.00" y="31.00" width="4.00" height="1.00" fill="#ff9a9a" opacity="0.5"/><rect x="24.50" y="30.50" width="5.00" height="5.00" fill="#f8a8a8" stroke="#c87878" stroke-width="0.5"/><rect x="25.00" y="31.00" width="4.00" height="1.00" fill="#ff9a9a" opacity="0.5"/><rect x="30.50" y="30.50" width="5.00" height="5.00" fill="#f8a8a8" stroke="#c87878" stroke-width="0.5"/><rect x="31.00" y="31.00" width="4.00" height="1.00" fill="#ff9a9a" opacity="0.5"/><rect x="6.50" y="36.50" width="5.00" height="5.00" fill="#f8a8a8" stroke="#c87878" stroke-width="0.5"/><rect x="7.00" y="37.00" width="4.00" height="1.00" fill="#ff9a9a" opacity="0.5"/><rect x="30.50" y="36.50" width="5.00" height="5.00" fill="#f8a8a8" stroke="#c87878" stroke-width="0.5"/><rect x="31.00" y="37.00" width="4.00" height="1.00" fill="#ff9a9a" opacity="0.5"/><rect x="6.50" y="42.50" width="5.00" height="5.00" fill="#f8a8a8" stroke="#c87878" stroke-width="0.5"/><rect x="7.00" y="43.00" width="4.00" height="1.00" fill="#ff9a9a" opacity="0.5"/><rect x="30.50" y="42.50" width="5.00" height="5.00" fill="#f8a8a8" stroke="#c87878" stroke-width="0.5"/><rect x="31.00" y="43.00" width="4.00" height="1.00" fill="#ff9a9a" opacity="0.5"/><rect x="45.50" y="6.50" width="5.00" height="5.00" fill="#f8a8a8" stroke="#c87878" stroke-width="0.5"/><rect x="46.00" y="7.00" width="4.00" height="1.00" fill="#ff9a9a" opacity="0.5"/><rect x="51.50" y="6.50" width="5.00" height="5.00" fill="#f8a8a8" stroke="#c87878" stroke-width="0.5"/><rect x="52.00" y="7.00" width="4.00" height="1.00" fill="#ff9a9a" opacity="0.5"/><rect x="57.50" y="6.50" width="5.00" height="5.00" fill="#f8a8a8" stroke="#c87878" stroke-width="0.5"/><rect x="58.00" y="7.00" width="4.00" height="1.00" fill="#ff9a9a" opacity="0.5"/><rect x="63.50" y="6.50" width="5.00" height="5.00" fill="#f8a8a8" stroke="#c87878" stroke-width="0.5"/><rect x="64.00" y="7.00" width="4.00" height="1.00" fill="#ff9a9a" opacity="0.5"/><rect x="69.50" y="6.50" width="5.00" height="5.00" fill="#f8a8a8" stroke="#c87878" stroke-width="0.5"/><rect x="70.00" y="7.00" width="4.00" height="1.00" fill="#ff9a9a" opacity="0.5"/><rect x="45.50" y="12.50" width="5.00" height="5.00" fill="#f8a8a8" stroke="#c87878" stroke-width="0.5"/><rect x="46.00" y="13.00" width="4.00" height="1.00" fill="#ff9a9a" opacity="0.5"/><rect x="45.50" y="18.50" width="5.00" height="5.00" fill="#f8a8a8" stroke="#c87878" stroke-width="0.5"/><rect x="46.00" y="19.00" width="4.00" height="1.00" fill="#ff9a9a" opacity="0.5"/><rect x="45.50" y="24.50" width="5.00" height="5.00" fill="#f8a8a8" stroke="#c87878" stroke-width="0.5"/><rect x="46.00" y="25.00" width="4.00" height="1.00" fill="#ff9a9a" opacity="0.5"/><rect x="51.50" y="24.50" width="5.00" height="5.00" fill="#f8a8a8" stroke="#c87878" stroke-width="0.5"/><rect x="52.00" y="25.00" width="4.00" height="1.00" fill="#ff9a9a" opacity="0.5"/><rect x="57.50" y="24.50" width="5.00" height="5.00" fill="#f8a8a8" stroke="#c87878" stroke-width="0.5"/><rect x="58.00" y="25.00" width="4.00" height="1.00" fill="#ff9a9a" opacity="0.5"/><rect x="63.50" y="24.50" width="5.00" height="5.00" fill="#f8a8a8" stroke="#c87878" stroke-width="0.5"/><rect x="64.00" y="25.00" width="4.00" height="1.00" fill="#ff9a9a" opacity="0.5"/><rect x="45.50" y="30.50" width="5.00" height="5.00" fill="#f8a8a8" stroke="#c87878" stroke-width="0.5"/><rect x="46.00" y="31.00" width="4.00" height="1.00" fill="#ff9a9a" opacity="0.5"/><rect x="45.50" y="36.50" width="5.00" height="5.00" fill="#f8a8a8" stroke="#c87878" stroke-width="0.5"/><rect x="46.00" y="37.00" width="4.00" height="1.00" fill="#ff9a9a" opacity="0.5"/><rect x="45.50" y="42.50" width="5.00" height="5.00" fill="#f8a8a8" stroke="#c87878" stroke-width="0.5"/><rect x="46.00" y="43.00" width="4.00" height="1.00" fill="#ff9a9a" opacity="0.5"/><rect x="51.50" y="42.50" width="5.00" height="5.00" fill="#f8a8a8" stroke="#c87878" stroke-width="0.5"/><rect x="52.00" y="43.00" width="4.00" height="1.00" fill="#ff9a9a" opacity="0.5"/><rect x="57.50" y="42.50" width="5.00" height="5.00" fill="#f8a8a8" stroke="#c87878" stroke-width="0.5"/><rect x="58.00" y="43.00" width="4.00" height="1.00" fill="#ff9a9a" opacity="0.5"/><rect x="63.50" y="42.50" width="5.00" height="5.00" fill="#f8a8a8" stroke="#c87878" stroke-width="0.5"/><rect x="64.00" y="43.00" width="4.00" height="1.00" fill="#ff9a9a" opacity="0.5"/><rect x="69.50" y="42.50" width="5.00" height="5.00" fill="#f8a8a8" stroke="#c87878" stroke-width="0.5"/><rect x="70.00" y="43.00" width="4.00" height="1.00" fill="#ff9a9a" opacity="0.5"/><rect x="84.50" y="6.50" width="5.00" height="5.00" fill="#f8a8a8" stroke="#c87878" stroke-width="0.5"/><rect x="85.00" y="7.00" width="4.00" height="1.00" fill="#ff9a9a" opacity="0.5"/><rect x="90.50" y="6.50" width="5.00" height="5.00" fill="#f8a8a8" stroke="#c87878" stroke-width="0.5"/><rect x="91.00" y="7.00" width="4.00" height="1.00" fill="#ff9a9a" opacity="0.5"/><rect x="96.50" y="6.50" width="5.00" height="5.00" fill="#f8a8a8" stroke="#c87878" stroke-width="0.5"/><rect x="97.00" y="7.00" width="4.00" height="1.00" fill="#ff9a9a" opacity="0.5"/><rect x="102.50" y="6.50" width="5.00" height="5.00" fill="#f8a8a8" stroke="#c87878" stroke-width="0.5"/><rect x="103.00" y="7.00" width="4.00" height="1.00" fill="#ff9a9a" opacity="0.5"/><rect x="108.50" y="6.50" width="5.00" height="5.00" fill="#f8a8a8" stroke="#c87878" stroke-width="0.5"/><rect x="109.00" y="7.00" width="4.00" height="1.00" fill="#ff9a9a" opacity="0.5"/><rect x="96.50" y="12.50" width="5.00" height="5.00" fill="#f8a8a8" stroke="#c87878" stroke-width="0.5"/><rect x="97.00" y="13.00" width="4.00" height="1.00" fill="#ff9a9a" opacity="0.5"/><rect x="96.50" y="18.50" width="5.00" height="5.00" fill="#f8a8a8" stroke="#c87878" stroke-width="0.5"/><rect x="97.00" y="19.00" width="4.00" height="1.00" fill="#ff9a9a" opacity="0.5"/><rect x="96.50" y="24.50" width="5.00" height="5.00" fill="#f8a8a8" stroke="#c87878" stroke-width="0.5"/><rect x="97.00" y="25.00" width="4.00" height="1.00" fill="#ff9a9a" opacity="0.5"/><rect x="96.50" y="30.50" width="5.00" height="5.00" fill="#f8a8a8" stroke="#c87878" stroke-width="0.5"/><rect x="97.00" y="31.00" width="4.00" height="1.00" fill="#ff9a9a" opacity="0.5"/><rect x="96.50" y="36.50" width="5.00" height="5.00" fill="#f8a8a8" stroke="#c87878" stroke-width="0.5"/><rect x="97.00" y="37.00" width="4.00" height="1.00" fill="#ff9a9a" opacity="0.5"/><rect x="96.50" y="42.50" width="5.00" height="5.00" fill="#f8a8a8" stroke="#c87878" stroke-width="0.5"/><rect x="97.00" y="43.00" width="4.00" height="1.00" fill="#ff9a9a" opacity="0.5"/><rect x="129.50" y="6.50" width="5.00" height="5.00" fill="#f8a8a8" stroke="#c87878" stroke-width="0.5"/><rect x="130.00" y="7.00" width="4.00" height="1.00" fill="#ff9a9a" opacity="0.5"/><rect x="135.50" y="6.50" width="5.00" height="5.00" fill="#f8a8a8" stroke="#c87878" stroke-width="0.5"/><rect x="136.00" y="7.00" width="4.00" height="1.00" fill="#ff9a9a" opacity="0.5"/><rect x="141.50" y="6.50" width="5.00" height="5.00" fill="#f8a8a8" stroke="#c87878" stroke-width="0.5"/><rect x="142.00" y="7.00" width="4.00" height="1.00" fill="#ff9a9a" opacity="0.5"/><rect x="147.50" y="6.50" width="5.00" height="5.00" fill="#f8a8a8" stroke="#c87878" stroke-width="0.5"/><rect x="148.00" y="7.00" width="4.00" height="1.00" fill="#ff9a9a" opacity="0.5"/><rect x="123.50" y="12.50" width="5.00" height="5.00" fill="#f8a8a8" stroke="#c87878" stroke-width="0.5"/><rect x="124.00" y="13.00" width="4.00" height="1.00" fill="#ff9a9a" opacity="0.5"/><rect x="123.50" y="18.50" width="5.00" height="5.00" fill="#f8a8a8" stroke="#c87878" stroke-width="0.5"/><rect x="124.00" y="19.00" width="4.00" height="1.00" fill="#ff9a9a" opacity="0.5"/><rect x="129.50" y="24.50" width="5.00" height="5.00" fill="#f8a8a8" stroke="#c87878" stroke-width="0.5"/><rect x="130.00" y="25.00" width="4.00" height="1.00" fill="#ff9a9a" opacity="0.5"/><rect x="135.50" y="24.50" width="5.00" height="5.00" fill="#f8a8a8" stroke="#c87878" stroke-width="0.5"/><rect x="136.00" y="25.00" width="4.00" height="1.00" fill="#ff9a9a" opacity="0.5"/><rect x="141.50" y="24.50" width="5.00" height="5.00" fill="#f8a8a8" stroke="#c87878" stroke-width="0.5"/><rect x="142.00" y="25.00" width="4.00" height="1.00" fill="#ff9a9a" opacity="0.5"/><rect x="147.50" y="30.50" width="5.00" height="5.00" fill="#f8a8a8" stroke="#c87878" stroke-width="0.5"/><rect x="148.00" y="31.00" width="4.00" height="1.00" fill="#ff9a9a" opacity="0.5"/><rect x="147.50" y="36.50" width="5.00" height="5.00" fill="#f8a8a8" stroke="#c87878" stroke-width="0.5"/><rect x="148.00" y="37.00" width="4.00" height="1.00" fill="#ff9a9a" opacity="0.5"/><rect x="123.50" y="42.50" width="5.00" height="5.00" fill="#f8a8a8" stroke="#c87878" stroke-width="0.5"/><rect x="124.00" y="43.00" width="4.00" height="1.00" fill="#ff9a9a" opacity="0.5"/><rect x="129.50" y="42.50" width="5.00" height="5.00" fill="#f8a8a8" stroke="#c87878" stroke-width="0.5"/><rect x="130.00" y="43.00" width="4.00" height="1.00" fill="#ff9a9a" opacity="0.5"/><rect x="135.50" y="42.50" width="5.00" height="5.00" fill="#f8a8a8" stroke="#c87878" stroke-width="0.5"/><rect x="136.00" y="43.00" width="4.00" height="1.00" fill="#ff9a9a" opacity="0.5"/><rect x="141.50" y="42.50" width="5.00" height="5.00" fill="#f8a8a8" stroke="#c87878" stroke-width="0.5"/><rect x="142.00" y="43.00" width="4.00" height="1.00" fill="#ff9a9a" opacity="0.5"/><rect x="162.50" y="6.50" width="5.00" height="5.00" fill="#f8a8a8" stroke="#c87878" stroke-width="0.5"/><rect x="163.00" y="7.00" width="4.00" height="1.00" fill="#ff9a9a" opacity="0.5"/><rect x="168.50" y="6.50" width="5.00" height="5.00" fill="#f8a8a8" stroke="#c87878" stroke-width="0.5"/><rect x="169.00" y="7.00" width="4.00" height="1.00" fill="#ff9a9a" opacity="0.5"/><rect x="174.50" y="6.50" width="5.00" height="5.00" fill="#f8a8a8" stroke="#c87878" stroke-width="0.5"/><rect x="175.00" y="7.00" width="4.00" height="1.00" fill="#ff9a9a" opacity="0.5"/><rect x="180.50" y="6.50" width="5.00" height="5.00" fill="#f8a8a8" stroke="#c87878" stroke-width="0.5"/><rect x="181.00" y="7.00" width="4.00" height="1.00" fill="#ff9a9a" opacity="0.5"/><rect x="186.50" y="6.50" width="5.00" height="5.00" fill="#f8a8a8" stroke="#c87878" stroke-width="0.5"/><rect x="187.00" y="7.00" width="4.00" height="1.00" fill="#ff9a9a" opacity="0.5"/><rect x="162.50" y="12.50" width="5.00" height="5.00" fill="#f8a8a8" stroke="#c87878" stroke-width="0.5"/><rect x="163.00" y="13.00" width="4.00" height="1.00" fill="#ff9a9a" opacity="0.5"/><rect x="162.50" y="18.50" width="5.00" height="5.00" fill="#f8a8a8" stroke="#c87878" stroke-width="0.5"/><rect x="163.00" y="19.00" width="4.00" height="1.00" fill="#ff9a9a" opacity="0.5"/><rect x="162.50" y="24.50" width="5.00" height="5.00" fill="#f8a8a8" stroke="#c87878" stroke-width="0.5"/><rect x="163.00" y="25.00" width="4.00" height="1.00" fill="#ff9a9a" opacity="0.5"/><rect x="168.50" y="24.50" width="5.00" height="5.00" fill="#f8a8a8" stroke="#c87878" stroke-width="0.5"/><rect x="169.00" y="25.00" width="4.00" height="1.00" fill="#ff9a9a" opacity="0.5"/><rect x="174.50" y="24.50" width="5.00" height="5.00" fill="#f8a8a8" stroke="#c87878" stroke-width="0.5"/><rect x="175.00" y="25.00" width="4.00" height="1.00" fill="#ff9a9a" opacity="0.5"/><rect x="180.50" y="24.50" width="5.00" height="5.00" fill="#f8a8a8" stroke="#c87878" stroke-width="0.5"/><rect x="181.00" y="25.00" width="4.00" height="1.00" fill="#ff9a9a" opacity="0.5"/><rect x="162.50" y="30.50" width="5.00" height="5.00" fill="#f8a8a8" stroke="#c87878" stroke-width="0.5"/><rect x="163.00" y="31.00" width="4.00" height="1.00" fill="#ff9a9a" opacity="0.5"/><rect x="162.50" y="36.50" width="5.00" height="5.00" fill="#f8a8a8" stroke="#c87878" stroke-width="0.5"/><rect x="163.00" y="37.00" width="4.00" height="1.00" fill="#ff9a9a" opacity="0.5"/><rect x="162.50" y="42.50" width="5.00" height="5.00" fill="#f8a8a8" stroke="#c87878" stroke-width="0.5"/><rect x="163.00" y="43.00" width="4.00" height="1.00" fill="#ff9a9a" opacity="0.5"/><rect x="168.50" y="42.50" width="5.00" height="5.00" fill="#f8a8a8" stroke="#c87878" stroke-width="0.5"/><rect x="169.00" y="43.00" width="4.00" height="1.00" fill="#ff9a9a" opacity="0.5"/><rect x="174.50" y="42.50" width="5.00" height="5.00" fill="#f8a8a8" stroke="#c87878" stroke-width="0.5"/><rect x="175.00" y="43.00" width="4.00" height="1.00" fill="#ff9a9a" opacity="0.5"/><rect x="180.50" y="42.50" width="5.00" height="5.00" fill="#f8a8a8" stroke="#c87878" stroke-width="0.5"/><rect x="181.00" y="43.00" width="4.00" height="1.00" fill="#ff9a9a" opacity="0.5"/><rect x="186.50" y="42.50" width="5.00" height="5.00" fill="#f8a8a8" stroke="#c87878" stroke-width="0.5"/><rect x="187.00" y="43.00" width="4.00" height="1.00" fill="#ff9a9a" opacity="0.5"/><rect x="207.50" y="6.50" width="5.00" height="5.00" fill="#f8a8a8" stroke="#c87878" stroke-width="0.5"/><rect x="208.00" y="7.00" width="4.00" height="1.00" fill="#ff9a9a" opacity="0.5"/><rect x="213.50" y="6.50" width="5.00" height="5.00" fill="#f8a8a8" stroke="#c87878" stroke-width="0.5"/><rect x="214.00" y="7.00" width="4.00" height="1.00" fill="#ff9a9a" opacity="0.5"/><rect x="219.50" y="6.50" width="5.00" height="5.00" fill="#f8a8a8" stroke="#c87878" stroke-width="0.5"/><rect x="220.00" y="7.00" width="4.00" height="1.00" fill="#ff9a9a" opacity="0.5"/><rect x="225.50" y="6.50" width="5.00" height="5.00" fill="#f8a8a8" stroke="#c87878" stroke-width="0.5"/><rect x="226.00" y="7.00" width="4.00" height="1.00" fill="#ff9a9a" opacity="0.5"/><rect x="201.50" y="12.50" width="5.00" height="5.00" fill="#f8a8a8" stroke="#c87878" stroke-width="0.5"/><rect x="202.00" y="13.00" width="4.00" height="1.00" fill="#ff9a9a" opacity="0.5"/><rect x="201.50" y="18.50" width="5.00" height="5.00" fill="#f8a8a8" stroke="#c87878" stroke-width="0.5"/><rect x="202.00" y="19.00" width="4.00" height="1.00" fill="#ff9a9a" opacity="0.5"/><rect x="201.50" y="24.50" width="5.00" height="5.00" fill="#f8a8a8" stroke="#c87878" stroke-width="0.5"/><rect x="202.00" y="25.00" width="4.00" height="1.00" fill="#ff9a9a" opacity="0.5"/><rect x="201.50" y="30.50" width="5.00" height="5.00" fill="#f8a8a8" stroke="#c87878" stroke-width="0.5"/><rect x="202.00" y="31.00" width="4.00" height="1.00" fill="#ff9a9a" opacity="0.5"/><rect x="201.50" y="36.50" width="5.00" height="5.00" fill="#f8a8a8" stroke="#c87878" stroke-width="0.5"/><rect x="202.00" y="37.00" width="4.00" height="1.00" fill="#ff9a9a" opacity="0.5"/><rect x="207.50" y="42.50" width="5.00" height="5.00" fill="#f8a8a8" stroke="#c87878" stroke-width="0.5"/><rect x="208.00" y="43.00" width="4.00" height="1.00" fill="#ff9a9a" opacity="0.5"/><rect x="213.50" y="42.50" width="5.00" height="5.00" fill="#f8a8a8" stroke="#c87878" stroke-width="0.5"/><rect x="214.00" y="43.00" width="4.00" height="1.00" fill="#ff9a9a" opacity="0.5"/><rect x="219.50" y="42.50" width="5.00" height="5.00" fill="#f8a8a8" stroke="#c87878" stroke-width="0.5"/><rect x="220.00" y="43.00" width="4.00" height="1.00" fill="#ff9a9a" opacity="0.5"/><rect x="225.50" y="42.50" width="5.00" height="5.00" fill="#f8a8a8" stroke="#c87878" stroke-width="0.5"/><rect x="226.00" y="43.00" width="4.00" height="1.00" fill="#ff9a9a" opacity="0.5"/></svg>